<svg width="515" height="55" viewBox="0 0 515 55" fill="none" xmlns="http://www.w3.org/2000/svg">
<g clip-path="url(#clip0_501_2061)">
<line x1="-209.293" y1="-121.707" x2="13.7071" y2="101.293" stroke="white" stroke-opacity="0.2" stroke-width="2"/>
<line x1="-188.293" y1="-121.707" x2="34.7071" y2="101.293" stroke="white" stroke-opacity="0.2" stroke-width="2"/>
<line x1="-167.293" y1="-121.707" x2="55.7071" y2="101.293" stroke="white" stroke-opacity="0.2" stroke-width="2"/>
<line x1="-146.293" y1="-121.707" x2="76.7071" y2="101.293" stroke="white" stroke-opacity="0.2" stroke-width="2"/>
<line x1="-125.293" y1="-121.707" x2="97.7071" y2="101.293" stroke="white" stroke-opacity="0.2" stroke-width="2"/>
<line x1="-104.293" y1="-121.707" x2="118.707" y2="101.293" stroke="white" stroke-opacity="0.2" stroke-width="2"/>
<line x1="-83.2929" y1="-121.707" x2="139.707" y2="101.293" stroke="white" stroke-opacity="0.2" stroke-width="2"/>
<line x1="-62.2929" y1="-121.707" x2="160.707" y2="101.293" stroke="white" stroke-opacity="0.2" stroke-width="2"/>
<line x1="-41.2929" y1="-121.707" x2="181.707" y2="101.293" stroke="white" stroke-opacity="0.2" stroke-width="2"/>
<line x1="-20.2929" y1="-121.707" x2="202.707" y2="101.293" stroke="white" stroke-opacity="0.2" stroke-width="2"/>
<line x1="0.707107" y1="-121.707" x2="223.707" y2="101.293" stroke="white" stroke-opacity="0.2" stroke-width="2"/>
<line x1="21.7071" y1="-121.707" x2="244.707" y2="101.293" stroke="white" stroke-opacity="0.2" stroke-width="2"/>
<line x1="42.7071" y1="-121.707" x2="265.707" y2="101.293" stroke="white" stroke-opacity="0.2" stroke-width="2"/>
<line x1="63.7071" y1="-121.707" x2="286.707" y2="101.293" stroke="white" stroke-opacity="0.2" stroke-width="2"/>
<line x1="84.7071" y1="-121.707" x2="307.707" y2="101.293" stroke="white" stroke-opacity="0.2" stroke-width="2"/>
<line x1="105.707" y1="-121.707" x2="328.707" y2="101.293" stroke="white" stroke-opacity="0.2" stroke-width="2"/>
<line x1="126.707" y1="-121.707" x2="349.707" y2="101.293" stroke="white" stroke-opacity="0.2" stroke-width="2"/>
<line x1="147.707" y1="-121.707" x2="370.707" y2="101.293" stroke="white" stroke-opacity="0.2" stroke-width="2"/>
<line x1="168.707" y1="-121.707" x2="391.707" y2="101.293" stroke="white" stroke-opacity="0.2" stroke-width="2"/>
<line x1="189.707" y1="-121.707" x2="412.707" y2="101.293" stroke="white" stroke-opacity="0.2" stroke-width="2"/>
<line x1="210.707" y1="-121.707" x2="433.707" y2="101.293" stroke="white" stroke-opacity="0.2" stroke-width="2"/>
<line x1="231.707" y1="-121.707" x2="454.707" y2="101.293" stroke="white" stroke-opacity="0.2" stroke-width="2"/>
<line x1="252.707" y1="-121.707" x2="475.707" y2="101.293" stroke="white" stroke-opacity="0.2" stroke-width="2"/>
<line x1="273.707" y1="-121.707" x2="496.707" y2="101.293" stroke="white" stroke-opacity="0.2" stroke-width="2"/>
<line x1="294.707" y1="-121.707" x2="517.707" y2="101.293" stroke="white" stroke-opacity="0.2" stroke-width="2"/>
<line x1="315.707" y1="-121.707" x2="538.707" y2="101.293" stroke="white" stroke-opacity="0.2" stroke-width="2"/>
<line x1="336.707" y1="-121.707" x2="559.707" y2="101.293" stroke="white" stroke-opacity="0.2" stroke-width="2"/>
<line x1="357.707" y1="-121.707" x2="580.707" y2="101.293" stroke="white" stroke-opacity="0.2" stroke-width="2"/>
<line x1="378.707" y1="-121.707" x2="601.707" y2="101.293" stroke="white" stroke-opacity="0.2" stroke-width="2"/>
<line x1="399.707" y1="-121.707" x2="622.707" y2="101.293" stroke="white" stroke-opacity="0.2" stroke-width="2"/>
<line x1="420.707" y1="-121.707" x2="643.707" y2="101.293" stroke="white" stroke-opacity="0.2" stroke-width="2"/>
<line x1="441.707" y1="-121.707" x2="664.707" y2="101.293" stroke="white" stroke-opacity="0.2" stroke-width="2"/>
<line x1="462.707" y1="-121.707" x2="685.707" y2="101.293" stroke="white" stroke-opacity="0.2" stroke-width="2"/>
<line x1="483.707" y1="-121.707" x2="706.707" y2="101.293" stroke="white" stroke-opacity="0.2" stroke-width="2"/>
<line x1="504.707" y1="-121.707" x2="727.707" y2="101.293" stroke="white" stroke-opacity="0.2" stroke-width="2"/>
</g>
<defs>
<clipPath id="clip0_501_2061">
<rect width="55" height="515" fill="white" transform="translate(0 55) rotate(-90)"/>
</clipPath>
</defs>
</svg>
