<svg width="33" height="27" viewBox="0 0 33 27" fill="none" xmlns="http://www.w3.org/2000/svg">
<path d="M1.46676 18.7561V26.3639L0.668927 26.8245V19.2167L1.46676 18.7561ZM8.25474 14.837V22.4449L7.48264 22.8906L3.89239 18.9901L3.82805 19.0273V25.0006L3.03021 25.4612V17.8534L3.80231 17.4077L7.40543 21.3156L7.46977 21.2784V15.2902L8.25474 14.837ZM14.3189 13.7134C14.2481 13.5041 14.1548 13.3338 14.039 13.2026C13.9253 13.0676 13.7891 12.9754 13.6304 12.9258C13.4739 12.8751 13.2958 12.8701 13.0964 12.911C12.8969 12.9518 12.6782 13.041 12.4401 13.1784C12.0498 13.4038 11.6948 13.7251 11.3753 14.1424C11.0557 14.5597 10.8015 15.0494 10.6128 15.6116C10.4241 16.1738 10.3297 16.7842 10.3297 17.443C10.3297 18.1017 10.4251 18.6026 10.616 18.9456C10.8069 19.2886 11.0653 19.4824 11.3913 19.5269C11.7173 19.5715 12.0841 19.4762 12.4916 19.2409C12.869 19.023 13.2015 18.7382 13.4889 18.3865C13.7784 18.0311 14.0036 17.6361 14.1645 17.2015C14.3274 16.7632 14.4089 16.3112 14.4089 15.8456L14.6534 15.7639L12.6717 16.908V16.0908L15.181 14.642V15.4593C15.181 16.0858 15.0652 16.6975 14.8336 17.2944C14.6041 17.89 14.2867 18.4323 13.8813 18.9214C13.4781 19.4068 13.0149 19.8006 12.4916 20.1027C11.9082 20.4395 11.3956 20.577 10.9538 20.5151C10.5141 20.4519 10.171 20.1993 9.92435 19.7573C9.67985 19.314 9.55761 18.6911 9.55761 17.8887C9.55761 17.2869 9.62731 16.7056 9.76671 16.1447C9.90827 15.58 10.1077 15.0538 10.3651 14.5659C10.6225 14.078 10.927 13.6422 11.2787 13.2583C11.6305 12.8744 12.0176 12.5605 12.4401 12.3166C12.7875 12.116 13.1114 11.9897 13.4117 11.9377C13.7141 11.882 13.9832 11.8962 14.2191 11.9804C14.4572 12.0609 14.6556 12.2076 14.8143 12.4206C14.973 12.6311 15.0824 12.9035 15.1424 13.2379L14.3189 13.7134ZM16.5113 17.678V10.0701L20.4876 7.77442V8.59166L17.3091 10.4268V12.9974L20.2817 11.2811V12.0984L17.3091 13.8146V16.4001L20.539 14.5353V15.3525L16.5113 17.678ZM25.4925 6.78678C25.4539 6.43264 25.2973 6.23081 25.0228 6.18128C24.7483 6.13175 24.4115 6.22214 24.0126 6.45246C23.7209 6.62086 23.4657 6.82269 23.247 7.05796C23.0303 7.29199 22.8609 7.53964 22.7387 7.80091C22.6186 8.06094 22.5585 8.31231 22.5585 8.55501C22.5585 8.75808 22.6003 8.90853 22.684 9.00635C22.7698 9.10046 22.8791 9.15742 23.0121 9.17723C23.1451 9.19456 23.2845 9.19209 23.4303 9.1698C23.5762 9.14503 23.7102 9.11593 23.8325 9.0825L24.5016 8.90419C24.6732 8.85714 24.8641 8.81875 25.0743 8.78904C25.2866 8.75808 25.4893 8.76613 25.6823 8.81318C25.8775 8.85652 26.0383 8.96425 26.1648 9.13637C26.2914 9.30848 26.3546 9.57285 26.3546 9.92947C26.3546 10.3406 26.2614 10.7659 26.0748 11.2055C25.8903 11.6438 25.6201 12.0636 25.2641 12.4648C24.9102 12.8647 24.4802 13.2108 23.974 13.5031C23.5022 13.7755 23.0936 13.9234 22.7483 13.947C22.4052 13.9693 22.1349 13.8801 21.9376 13.6795C21.7424 13.4777 21.632 13.1762 21.6063 12.775L22.4298 12.2995C22.4513 12.5744 22.5349 12.7638 22.6808 12.8678C22.8287 12.9681 23.0153 12.9991 23.2405 12.9607C23.4679 12.9186 23.7124 12.822 23.974 12.671C24.2786 12.4951 24.552 12.2803 24.7944 12.0264C25.0367 11.7701 25.2287 11.4983 25.3702 11.2111C25.5118 10.9213 25.5826 10.6377 25.5826 10.3604C25.5826 10.1078 25.5214 9.93751 25.3992 9.8496C25.2769 9.76168 25.1161 9.72577 24.9166 9.74187C24.7172 9.75797 24.5016 9.79573 24.27 9.85517L23.4593 10.0558C22.9446 10.1821 22.5371 10.1734 22.2368 10.0298C21.9365 9.88613 21.7864 9.55799 21.7864 9.04535C21.7864 8.6194 21.8861 8.19034 22.0856 7.75819C22.2872 7.32233 22.5574 6.91866 22.8963 6.54718C23.2373 6.17199 23.618 5.86305 24.0384 5.62035C24.463 5.37518 24.8405 5.24516 25.1708 5.2303C25.5011 5.21297 25.7627 5.29964 25.9557 5.49033C26.1509 5.67979 26.2538 5.96335 26.2646 6.34101L25.4925 6.78678ZM27.2699 4.6759V3.85865L32.2113 1.00572V1.82297L30.1395 3.01912V9.80969L29.3417 10.2703V3.47975L27.2699 4.6759Z" fill="black"/>
</svg>
